<?xml version="1.0" encoding="UTF-8" standalone="no"?>
<!DOCTYPE svg PUBLIC "-//W3C//DTD SVG 1.1//EN"
 "http://www.w3.org/Graphics/SVG/1.1/DTD/svg11.dtd">
<!-- Generated by graphviz version 12.2.1 (0)
 -->
<!-- Pages: 1 -->
<svg width="1375pt" height="104pt"
 viewBox="0.00 0.00 1374.50 103.84" xmlns="http://www.w3.org/2000/svg" xmlns:xlink="http://www.w3.org/1999/xlink">
<g id="graph0" class="graph" transform="scale(1 1) rotate(0) translate(4 99.84)">
<polygon fill="white" stroke="none" points="-4,4 -4,-99.84 1370.5,-99.84 1370.5,4 -4,4"/>
<!-- /nix/store/r3zacbi5cd9n98x44yh6mdywrdf81zxh&#45;bootstrap&#45;stage0&#45;binutils&#45;wrapper&#45; -->
<g id="node1" class="node">
<title>/nix/store/r3zacbi5cd9n98x44yh6mdywrdf81zxh&#45;bootstrap&#45;stage0&#45;binutils&#45;wrapper&#45;</title>
<path fill="#eeeeee" stroke="black" d="M630.15,-53.84C630.15,-53.84 330.45,-53.84 330.45,-53.84 324.45,-53.84 318.45,-47.84 318.45,-41.84 318.45,-41.84 318.45,-29.84 318.45,-29.84 318.45,-23.84 324.45,-17.84 330.45,-17.84 330.45,-17.84 630.15,-17.84 630.15,-17.84 636.15,-17.84 642.15,-23.84 642.15,-29.84 642.15,-29.84 642.15,-41.84 642.15,-41.84 642.15,-47.84 636.15,-53.84 630.15,-53.84"/>
<text text-anchor="middle" x="480.3" y="-31.91" font-family="Times,serif" font-size="14.00">bootstrap&#45;stage0&#45;binutils&#45;wrapper&#45;</text>
</g>
<!-- /nix/store/vwfprzg8aimy7mfjyn9qcj1swk0f0i82&#45;bootstrap&#45;stage0&#45;glibc&#45;bootstrapFiles -->
<g id="node3" class="node">
<title>/nix/store/vwfprzg8aimy7mfjyn9qcj1swk0f0i82&#45;bootstrap&#45;stage0&#45;glibc&#45;bootstrapFiles</title>
<path fill="#eeeeee" stroke="black" d="M1014.6,-95.84C1014.6,-95.84 690.15,-95.84 690.15,-95.84 684.15,-95.84 678.15,-89.84 678.15,-83.84 678.15,-83.84 678.15,-71.84 678.15,-71.84 678.15,-65.84 684.15,-59.84 690.15,-59.84 690.15,-59.84 1014.6,-59.84 1014.6,-59.84 1020.6,-59.84 1026.6,-65.84 1026.6,-71.84 1026.6,-71.84 1026.6,-83.84 1026.6,-83.84 1026.6,-89.84 1020.6,-95.84 1014.6,-95.84"/>
<text text-anchor="middle" x="852.38" y="-73.91" font-family="Times,serif" font-size="14.00">bootstrap&#45;stage0&#45;glibc&#45;bootstrapFiles</text>
</g>
<!-- /nix/store/r3zacbi5cd9n98x44yh6mdywrdf81zxh&#45;bootstrap&#45;stage0&#45;binutils&#45;wrapper&#45;&#45;&gt;/nix/store/vwfprzg8aimy7mfjyn9qcj1swk0f0i82&#45;bootstrap&#45;stage0&#45;glibc&#45;bootstrapFiles -->
<g id="edge2" class="edge">
<title>/nix/store/r3zacbi5cd9n98x44yh6mdywrdf81zxh&#45;bootstrap&#45;stage0&#45;binutils&#45;wrapper&#45;&#45;&gt;/nix/store/vwfprzg8aimy7mfjyn9qcj1swk0f0i82&#45;bootstrap&#45;stage0&#45;glibc&#45;bootstrapFiles</title>
<path fill="none" stroke="black" d="M642.54,-54.14C654.13,-55.45 665.84,-56.78 677.5,-58.1"/>
<polygon fill="black" stroke="black" points="676.81,-61.55 687.14,-59.2 677.6,-54.59 676.81,-61.55"/>
</g>
<!-- /nix/store/razasrvdg7ckplfmvdxv4ia3wbayr94s&#45;bootstrap&#45;tools -->
<g id="node4" class="node">
<title>/nix/store/razasrvdg7ckplfmvdxv4ia3wbayr94s&#45;bootstrap&#45;tools</title>
<path fill="#eeeeee" stroke="black" d="M1217.55,-49.84C1217.55,-49.84 1074.6,-49.84 1074.6,-49.84 1068.6,-49.84 1062.6,-43.84 1062.6,-37.84 1062.6,-37.84 1062.6,-25.84 1062.6,-25.84 1062.6,-19.84 1068.6,-13.84 1074.6,-13.84 1074.6,-13.84 1217.55,-13.84 1217.55,-13.84 1223.55,-13.84 1229.55,-19.84 1229.55,-25.84 1229.55,-25.84 1229.55,-37.84 1229.55,-37.84 1229.55,-43.84 1223.55,-49.84 1217.55,-49.84"/>
<text text-anchor="middle" x="1146.08" y="-27.91" font-family="Times,serif" font-size="14.00">bootstrap&#45;tools</text>
</g>
<!-- /nix/store/r3zacbi5cd9n98x44yh6mdywrdf81zxh&#45;bootstrap&#45;stage0&#45;binutils&#45;wrapper&#45;&#45;&gt;/nix/store/razasrvdg7ckplfmvdxv4ia3wbayr94s&#45;bootstrap&#45;tools -->
<g id="edge5" class="edge">
<title>/nix/store/r3zacbi5cd9n98x44yh6mdywrdf81zxh&#45;bootstrap&#45;stage0&#45;binutils&#45;wrapper&#45;&#45;&gt;/nix/store/razasrvdg7ckplfmvdxv4ia3wbayr94s&#45;bootstrap&#45;tools</title>
<path fill="none" stroke="black" d="M642.4,-34.87C770.32,-34.09 944.75,-33.04 1050.91,-32.4"/>
<polygon fill="black" stroke="black" points="1050.74,-35.9 1060.72,-32.34 1050.7,-28.9 1050.74,-35.9"/>
</g>
<!-- /nix/store/kd30widaa7wr1af8rixl4ifkgzxyvs06&#45;bootstrap&#45;stage1&#45;gcc&#45;wrapper&#45; -->
<g id="node2" class="node">
<title>/nix/store/kd30widaa7wr1af8rixl4ifkgzxyvs06&#45;bootstrap&#45;stage1&#45;gcc&#45;wrapper&#45;</title>
<path fill="#eeeeee" stroke="black" d="M270.45,-53.84C270.45,-53.84 12,-53.84 12,-53.84 6,-53.84 0,-47.84 0,-41.84 0,-41.84 0,-29.84 0,-29.84 0,-23.84 6,-17.84 12,-17.84 12,-17.84 270.45,-17.84 270.45,-17.84 276.45,-17.84 282.45,-23.84 282.45,-29.84 282.45,-29.84 282.45,-41.84 282.45,-41.84 282.45,-47.84 276.45,-53.84 270.45,-53.84"/>
<text text-anchor="middle" x="141.22" y="-31.91" font-family="Times,serif" font-size="14.00">bootstrap&#45;stage1&#45;gcc&#45;wrapper&#45;</text>
</g>
<!-- /nix/store/kd30widaa7wr1af8rixl4ifkgzxyvs06&#45;bootstrap&#45;stage1&#45;gcc&#45;wrapper&#45;&#45;&gt;/nix/store/r3zacbi5cd9n98x44yh6mdywrdf81zxh&#45;bootstrap&#45;stage0&#45;binutils&#45;wrapper&#45; -->
<g id="edge1" class="edge">
<title>/nix/store/kd30widaa7wr1af8rixl4ifkgzxyvs06&#45;bootstrap&#45;stage1&#45;gcc&#45;wrapper&#45;&#45;&gt;/nix/store/r3zacbi5cd9n98x44yh6mdywrdf81zxh&#45;bootstrap&#45;stage0&#45;binutils&#45;wrapper&#45;</title>
<path fill="none" stroke="black" d="M282.73,-35.84C290.65,-35.84 298.66,-35.84 306.67,-35.84"/>
<polygon fill="black" stroke="black" points="306.5,-39.34 316.5,-35.84 306.5,-32.34 306.5,-39.34"/>
</g>
<!-- /nix/store/kd30widaa7wr1af8rixl4ifkgzxyvs06&#45;bootstrap&#45;stage1&#45;gcc&#45;wrapper&#45;&#45;&gt;/nix/store/vwfprzg8aimy7mfjyn9qcj1swk0f0i82&#45;bootstrap&#45;stage0&#45;glibc&#45;bootstrapFiles -->
<g id="edge6" class="edge">
<title>/nix/store/kd30widaa7wr1af8rixl4ifkgzxyvs06&#45;bootstrap&#45;stage1&#45;gcc&#45;wrapper&#45;&#45;&gt;/nix/store/vwfprzg8aimy7mfjyn9qcj1swk0f0i82&#45;bootstrap&#45;stage0&#45;glibc&#45;bootstrapFiles</title>
<path fill="none" stroke="black" d="M248.67,-54.32C271.62,-57.69 295.79,-60.79 318.45,-62.84 433.85,-73.26 563.82,-77.08 666.52,-78.25"/>
<polygon fill="black" stroke="black" points="666.4,-81.75 676.43,-78.36 666.47,-74.75 666.4,-81.75"/>
</g>
<!-- /nix/store/kd30widaa7wr1af8rixl4ifkgzxyvs06&#45;bootstrap&#45;stage1&#45;gcc&#45;wrapper&#45;&#45;&gt;/nix/store/razasrvdg7ckplfmvdxv4ia3wbayr94s&#45;bootstrap&#45;tools -->
<g id="edge7" class="edge">
<title>/nix/store/kd30widaa7wr1af8rixl4ifkgzxyvs06&#45;bootstrap&#45;stage1&#45;gcc&#45;wrapper&#45;&#45;&gt;/nix/store/razasrvdg7ckplfmvdxv4ia3wbayr94s&#45;bootstrap&#45;tools</title>
<path fill="none" stroke="black" d="M245.36,-17.35C269.27,-13.81 294.69,-10.65 318.45,-8.84 583.45,11.35 897.44,-9.69 1051,-22.88"/>
<polygon fill="black" stroke="black" points="1050.45,-26.35 1060.71,-23.72 1051.05,-19.37 1050.45,-26.35"/>
</g>
<!-- /nix/store/vwfprzg8aimy7mfjyn9qcj1swk0f0i82&#45;bootstrap&#45;stage0&#45;glibc&#45;bootstrapFiles&#45;&gt;/nix/store/razasrvdg7ckplfmvdxv4ia3wbayr94s&#45;bootstrap&#45;tools -->
<g id="edge3" class="edge">
<title>/nix/store/vwfprzg8aimy7mfjyn9qcj1swk0f0i82&#45;bootstrap&#45;stage0&#45;glibc&#45;bootstrapFiles&#45;&gt;/nix/store/razasrvdg7ckplfmvdxv4ia3wbayr94s&#45;bootstrap&#45;tools</title>
<path fill="none" stroke="black" d="M970.34,-59.39C997.13,-55.17 1025.27,-50.73 1050.95,-46.68"/>
<polygon fill="black" stroke="black" points="1051.35,-50.16 1060.68,-45.14 1050.26,-43.25 1051.35,-50.16"/>
</g>
<!-- /nix/store/p9wzypb84a60ymqnhqza17ws0dvlyprg&#45;busybox -->
<g id="node5" class="node">
<title>/nix/store/p9wzypb84a60ymqnhqza17ws0dvlyprg&#45;busybox</title>
<path fill="#eeeeee" stroke="black" d="M1354.5,-49.84C1354.5,-49.84 1277.55,-49.84 1277.55,-49.84 1271.55,-49.84 1265.55,-43.84 1265.55,-37.84 1265.55,-37.84 1265.55,-25.84 1265.55,-25.84 1265.55,-19.84 1271.55,-13.84 1277.55,-13.84 1277.55,-13.84 1354.5,-13.84 1354.5,-13.84 1360.5,-13.84 1366.5,-19.84 1366.5,-25.84 1366.5,-25.84 1366.5,-37.84 1366.5,-37.84 1366.5,-43.84 1360.5,-49.84 1354.5,-49.84"/>
<text text-anchor="middle" x="1316.03" y="-27.91" font-family="Times,serif" font-size="14.00">busybox</text>
</g>
<!-- /nix/store/razasrvdg7ckplfmvdxv4ia3wbayr94s&#45;bootstrap&#45;tools&#45;&gt;/nix/store/p9wzypb84a60ymqnhqza17ws0dvlyprg&#45;busybox -->
<g id="edge4" class="edge">
<title>/nix/store/razasrvdg7ckplfmvdxv4ia3wbayr94s&#45;bootstrap&#45;tools&#45;&gt;/nix/store/p9wzypb84a60ymqnhqza17ws0dvlyprg&#45;busybox</title>
<path fill="none" stroke="black" d="M1229.57,-31.84C1237.82,-31.84 1246.09,-31.84 1254.06,-31.84"/>
<polygon fill="black" stroke="black" points="1253.97,-35.34 1263.97,-31.84 1253.97,-28.34 1253.97,-35.34"/>
</g>
</g>
</svg>
