<?xml version="1.0" encoding="UTF-8" standalone="no"?>
<!DOCTYPE svg PUBLIC "-//W3C//DTD SVG 1.1//EN"
 "http://www.w3.org/Graphics/SVG/1.1/DTD/svg11.dtd">
<!-- Generated by graphviz version 12.2.1 (0)
 -->
<!-- Pages: 1 -->
<svg width="2008pt" height="899pt"
 viewBox="0.00 0.00 2008.10 899.45" xmlns="http://www.w3.org/2000/svg" xmlns:xlink="http://www.w3.org/1999/xlink">
<g id="graph0" class="graph" transform="scale(1 1) rotate(0) translate(4 895.45)">
<polygon fill="white" stroke="none" points="-4,4 -4,-895.45 2004.1,-895.45 2004.1,4 -4,4"/>
<!-- /nix/store/2xlx0mj9a8gvf1w1kbgnpqzn6jrf83dp&#45;binutils&#45;wrapper&#45;2.44 -->
<g id="node1" class="node">
<title>/nix/store/2xlx0mj9a8gvf1w1kbgnpqzn6jrf83dp&#45;binutils&#45;wrapper&#45;2.44</title>
<path fill="#eeeeee" stroke="black" d="M572.4,-645.34C572.4,-645.34 379.95,-645.34 379.95,-645.34 373.95,-645.34 367.95,-639.34 367.95,-633.34 367.95,-633.34 367.95,-621.34 367.95,-621.34 367.95,-615.34 373.95,-609.34 379.95,-609.34 379.95,-609.34 572.4,-609.34 572.4,-609.34 578.4,-609.34 584.4,-615.34 584.4,-621.34 584.4,-621.34 584.4,-633.34 584.4,-633.34 584.4,-639.34 578.4,-645.34 572.4,-645.34"/>
<text text-anchor="middle" x="476.17" y="-623.42" font-family="Times,serif" font-size="14.00">binutils&#45;wrapper&#45;2.44</text>
</g>
<!-- /nix/store/yy0zgvwzj953frcj73lr7zmyggnv7r6b&#45;binutils&#45;2.44 -->
<g id="node3" class="node">
<title>/nix/store/yy0zgvwzj953frcj73lr7zmyggnv7r6b&#45;binutils&#45;2.44</title>
<path fill="#eeeeee" stroke="black" d="M767.1,-721.34C767.1,-721.34 640.65,-721.34 640.65,-721.34 634.65,-721.34 628.65,-715.34 628.65,-709.34 628.65,-709.34 628.65,-697.34 628.65,-697.34 628.65,-691.34 634.65,-685.34 640.65,-685.34 640.65,-685.34 767.1,-685.34 767.1,-685.34 773.1,-685.34 779.1,-691.34 779.1,-697.34 779.1,-697.34 779.1,-709.34 779.1,-709.34 779.1,-715.34 773.1,-721.34 767.1,-721.34"/>
<text text-anchor="middle" x="703.88" y="-699.42" font-family="Times,serif" font-size="14.00">binutils&#45;2.44</text>
</g>
<!-- /nix/store/2xlx0mj9a8gvf1w1kbgnpqzn6jrf83dp&#45;binutils&#45;wrapper&#45;2.44&#45;&gt;/nix/store/yy0zgvwzj953frcj73lr7zmyggnv7r6b&#45;binutils&#45;2.44 -->
<g id="edge2" class="edge">
<title>/nix/store/2xlx0mj9a8gvf1w1kbgnpqzn6jrf83dp&#45;binutils&#45;wrapper&#45;2.44&#45;&gt;/nix/store/yy0zgvwzj953frcj73lr7zmyggnv7r6b&#45;binutils&#45;2.44</title>
<path fill="none" stroke="black" d="M532.1,-645.84C563.89,-656.54 604.09,-670.08 637.51,-681.33"/>
<polygon fill="black" stroke="black" points="636.07,-684.54 646.66,-684.41 638.3,-677.9 636.07,-684.54"/>
</g>
<!-- /nix/store/vwfprzg8aimy7mfjyn9qcj1swk0f0i82&#45;bootstrap&#45;stage0&#45;glibc&#45;bootstrapFiles -->
<g id="node5" class="node">
<title>/nix/store/vwfprzg8aimy7mfjyn9qcj1swk0f0i82&#45;bootstrap&#45;stage0&#45;glibc&#45;bootstrapFiles</title>
<path fill="#eeeeee" stroke="black" d="M1648.2,-493.34C1648.2,-493.34 1323.75,-493.34 1323.75,-493.34 1317.75,-493.34 1311.75,-487.34 1311.75,-481.34 1311.75,-481.34 1311.75,-469.34 1311.75,-469.34 1311.75,-463.34 1317.75,-457.34 1323.75,-457.34 1323.75,-457.34 1648.2,-457.34 1648.2,-457.34 1654.2,-457.34 1660.2,-463.34 1660.2,-469.34 1660.2,-469.34 1660.2,-481.34 1660.2,-481.34 1660.2,-487.34 1654.2,-493.34 1648.2,-493.34"/>
<text text-anchor="middle" x="1485.98" y="-471.42" font-family="Times,serif" font-size="14.00">bootstrap&#45;stage0&#45;glibc&#45;bootstrapFiles</text>
</g>
<!-- /nix/store/2xlx0mj9a8gvf1w1kbgnpqzn6jrf83dp&#45;binutils&#45;wrapper&#45;2.44&#45;&gt;/nix/store/vwfprzg8aimy7mfjyn9qcj1swk0f0i82&#45;bootstrap&#45;stage0&#45;glibc&#45;bootstrapFiles -->
<g id="edge14" class="edge">
<title>/nix/store/2xlx0mj9a8gvf1w1kbgnpqzn6jrf83dp&#45;binutils&#45;wrapper&#45;2.44&#45;&gt;/nix/store/vwfprzg8aimy7mfjyn9qcj1swk0f0i82&#45;bootstrap&#45;stage0&#45;glibc&#45;bootstrapFiles</title>
<path fill="none" stroke="black" d="M584.55,-611.15C769.85,-583.2 1149.17,-525.99 1351.27,-495.51"/>
<polygon fill="black" stroke="black" points="1351.68,-498.99 1361.05,-494.03 1350.64,-492.06 1351.68,-498.99"/>
</g>
<!-- /nix/store/razasrvdg7ckplfmvdxv4ia3wbayr94s&#45;bootstrap&#45;tools -->
<g id="node6" class="node">
<title>/nix/store/razasrvdg7ckplfmvdxv4ia3wbayr94s&#45;bootstrap&#45;tools</title>
<path fill="#eeeeee" stroke="black" d="M1851.15,-546.34C1851.15,-546.34 1708.2,-546.34 1708.2,-546.34 1702.2,-546.34 1696.2,-540.34 1696.2,-534.34 1696.2,-534.34 1696.2,-522.34 1696.2,-522.34 1696.2,-516.34 1702.2,-510.34 1708.2,-510.34 1708.2,-510.34 1851.15,-510.34 1851.15,-510.34 1857.15,-510.34 1863.15,-516.34 1863.15,-522.34 1863.15,-522.34 1863.15,-534.34 1863.15,-534.34 1863.15,-540.34 1857.15,-546.34 1851.15,-546.34"/>
<text text-anchor="middle" x="1779.68" y="-524.42" font-family="Times,serif" font-size="14.00">bootstrap&#45;tools</text>
</g>
<!-- /nix/store/2xlx0mj9a8gvf1w1kbgnpqzn6jrf83dp&#45;binutils&#45;wrapper&#45;2.44&#45;&gt;/nix/store/razasrvdg7ckplfmvdxv4ia3wbayr94s&#45;bootstrap&#45;tools -->
<g id="edge15" class="edge">
<title>/nix/store/2xlx0mj9a8gvf1w1kbgnpqzn6jrf83dp&#45;binutils&#45;wrapper&#45;2.44&#45;&gt;/nix/store/razasrvdg7ckplfmvdxv4ia3wbayr94s&#45;bootstrap&#45;tools</title>
<path fill="none" stroke="black" d="M498.45,-645.62C559.4,-696.04 741.58,-833.34 918.2,-833.34 918.2,-833.34 918.2,-833.34 1164.4,-833.34 1387.75,-833.34 1478.83,-881.69 1660.2,-751.34 1726.8,-703.48 1759.33,-606.48 1772.02,-557.72"/>
<polygon fill="black" stroke="black" points="1775.38,-558.72 1774.39,-548.17 1768.58,-557.03 1775.38,-558.72"/>
</g>
<!-- /nix/store/nqwygg76wsgfj1b4r1xmy9jv4pmlnrks&#45;expand&#45;response&#45;params -->
<g id="node9" class="node">
<title>/nix/store/nqwygg76wsgfj1b4r1xmy9jv4pmlnrks&#45;expand&#45;response&#45;params</title>
<path fill="#eeeeee" stroke="black" d="M1263.75,-599.34C1263.75,-599.34 1063.05,-599.34 1063.05,-599.34 1057.05,-599.34 1051.05,-593.34 1051.05,-587.34 1051.05,-587.34 1051.05,-575.34 1051.05,-575.34 1051.05,-569.34 1057.05,-563.34 1063.05,-563.34 1063.05,-563.34 1263.75,-563.34 1263.75,-563.34 1269.75,-563.34 1275.75,-569.34 1275.75,-575.34 1275.75,-575.34 1275.75,-587.34 1275.75,-587.34 1275.75,-593.34 1269.75,-599.34 1263.75,-599.34"/>
<text text-anchor="middle" x="1163.4" y="-577.42" font-family="Times,serif" font-size="14.00">expand&#45;response&#45;params</text>
</g>
<!-- /nix/store/2xlx0mj9a8gvf1w1kbgnpqzn6jrf83dp&#45;binutils&#45;wrapper&#45;2.44&#45;&gt;/nix/store/nqwygg76wsgfj1b4r1xmy9jv4pmlnrks&#45;expand&#45;response&#45;params -->
<g id="edge16" class="edge">
<title>/nix/store/2xlx0mj9a8gvf1w1kbgnpqzn6jrf83dp&#45;binutils&#45;wrapper&#45;2.44&#45;&gt;/nix/store/nqwygg76wsgfj1b4r1xmy9jv4pmlnrks&#45;expand&#45;response&#45;params</title>
<path fill="none" stroke="black" d="M584.81,-625.82C693.56,-623.5 866.3,-617.73 1015.05,-603.34 1023.01,-602.57 1031.21,-601.67 1039.45,-600.67"/>
<polygon fill="black" stroke="black" points="1039.73,-604.16 1049.22,-599.45 1038.86,-597.22 1039.73,-604.16"/>
</g>
<!-- /nix/store/bxdlrazm3i8q8sinq15da7z0skkin8d2&#45;bootstrap&#45;stage2&#45;gcc&#45;wrapper&#45;14.3.0 -->
<g id="node2" class="node">
<title>/nix/store/bxdlrazm3i8q8sinq15da7z0skkin8d2&#45;bootstrap&#45;stage2&#45;gcc&#45;wrapper&#45;14.3.0</title>
<path fill="#eeeeee" stroke="black" d="M319.95,-559.34C319.95,-559.34 12,-559.34 12,-559.34 6,-559.34 0,-553.34 0,-547.34 0,-547.34 0,-535.34 0,-535.34 0,-529.34 6,-523.34 12,-523.34 12,-523.34 319.95,-523.34 319.95,-523.34 325.95,-523.34 331.95,-529.34 331.95,-535.34 331.95,-535.34 331.95,-547.34 331.95,-547.34 331.95,-553.34 325.95,-559.34 319.95,-559.34"/>
<text text-anchor="middle" x="165.97" y="-537.42" font-family="Times,serif" font-size="14.00">bootstrap&#45;stage2&#45;gcc&#45;wrapper&#45;14.3.0</text>
</g>
<!-- /nix/store/bxdlrazm3i8q8sinq15da7z0skkin8d2&#45;bootstrap&#45;stage2&#45;gcc&#45;wrapper&#45;14.3.0&#45;&gt;/nix/store/2xlx0mj9a8gvf1w1kbgnpqzn6jrf83dp&#45;binutils&#45;wrapper&#45;2.44 -->
<g id="edge1" class="edge">
<title>/nix/store/bxdlrazm3i8q8sinq15da7z0skkin8d2&#45;bootstrap&#45;stage2&#45;gcc&#45;wrapper&#45;14.3.0&#45;&gt;/nix/store/2xlx0mj9a8gvf1w1kbgnpqzn6jrf83dp&#45;binutils&#45;wrapper&#45;2.44</title>
<path fill="none" stroke="black" d="M233.09,-559.79C281.46,-573.29 347.21,-591.63 397.98,-605.8"/>
<polygon fill="black" stroke="black" points="396.87,-609.13 407.44,-608.44 398.75,-602.38 396.87,-609.13"/>
</g>
<!-- /nix/store/bxdlrazm3i8q8sinq15da7z0skkin8d2&#45;bootstrap&#45;stage2&#45;gcc&#45;wrapper&#45;14.3.0&#45;&gt;/nix/store/vwfprzg8aimy7mfjyn9qcj1swk0f0i82&#45;bootstrap&#45;stage0&#45;glibc&#45;bootstrapFiles -->
<g id="edge19" class="edge">
<title>/nix/store/bxdlrazm3i8q8sinq15da7z0skkin8d2&#45;bootstrap&#45;stage2&#45;gcc&#45;wrapper&#45;14.3.0&#45;&gt;/nix/store/vwfprzg8aimy7mfjyn9qcj1swk0f0i82&#45;bootstrap&#45;stage0&#45;glibc&#45;bootstrapFiles</title>
<path fill="none" stroke="black" d="M332.23,-533.07C578.99,-520.71 1042.22,-497.51 1299.98,-484.61"/>
<polygon fill="black" stroke="black" points="1300.01,-488.11 1309.82,-484.11 1299.66,-481.12 1300.01,-488.11"/>
</g>
<!-- /nix/store/bxdlrazm3i8q8sinq15da7z0skkin8d2&#45;bootstrap&#45;stage2&#45;gcc&#45;wrapper&#45;14.3.0&#45;&gt;/nix/store/razasrvdg7ckplfmvdxv4ia3wbayr94s&#45;bootstrap&#45;tools -->
<g id="edge20" class="edge">
<title>/nix/store/bxdlrazm3i8q8sinq15da7z0skkin8d2&#45;bootstrap&#45;stage2&#45;gcc&#45;wrapper&#45;14.3.0&#45;&gt;/nix/store/razasrvdg7ckplfmvdxv4ia3wbayr94s&#45;bootstrap&#45;tools</title>
<path fill="none" stroke="black" d="M181.92,-559.55C240.51,-628.74 463.04,-871.34 702.88,-871.34 702.88,-871.34 702.88,-871.34 1164.4,-871.34 1386.42,-871.34 1483.15,-944.3 1660.2,-810.34 1742.83,-747.82 1768.33,-616.78 1775.78,-557.99"/>
<polygon fill="black" stroke="black" points="1779.25,-558.44 1776.94,-548.1 1772.3,-557.63 1779.25,-558.44"/>
</g>
<!-- /nix/store/bxdlrazm3i8q8sinq15da7z0skkin8d2&#45;bootstrap&#45;stage2&#45;gcc&#45;wrapper&#45;14.3.0&#45;&gt;/nix/store/nqwygg76wsgfj1b4r1xmy9jv4pmlnrks&#45;expand&#45;response&#45;params -->
<g id="edge21" class="edge">
<title>/nix/store/bxdlrazm3i8q8sinq15da7z0skkin8d2&#45;bootstrap&#45;stage2&#45;gcc&#45;wrapper&#45;14.3.0&#45;&gt;/nix/store/nqwygg76wsgfj1b4r1xmy9jv4pmlnrks&#45;expand&#45;response&#45;params</title>
<path fill="none" stroke="black" d="M332.19,-547.98C531.3,-555.98 861.27,-569.24 1039.35,-576.4"/>
<polygon fill="black" stroke="black" points="1038.95,-579.88 1049.08,-576.79 1039.23,-572.89 1038.95,-579.88"/>
</g>
<!-- /nix/store/jr2hpcx863iiq8v2dqp4xpvlh8c2x1q6&#45;xgcc&#45;14.3.0 -->
<g id="node10" class="node">
<title>/nix/store/jr2hpcx863iiq8v2dqp4xpvlh8c2x1q6&#45;xgcc&#45;14.3.0</title>
<path fill="#eeeeee" stroke="black" d="M531.15,-302.34C531.15,-302.34 421.2,-302.34 421.2,-302.34 415.2,-302.34 409.2,-296.34 409.2,-290.34 409.2,-290.34 409.2,-278.34 409.2,-278.34 409.2,-272.34 415.2,-266.34 421.2,-266.34 421.2,-266.34 531.15,-266.34 531.15,-266.34 537.15,-266.34 543.15,-272.34 543.15,-278.34 543.15,-278.34 543.15,-290.34 543.15,-290.34 543.15,-296.34 537.15,-302.34 531.15,-302.34"/>
<text text-anchor="middle" x="476.17" y="-280.42" font-family="Times,serif" font-size="14.00">xgcc&#45;14.3.0</text>
</g>
<!-- /nix/store/bxdlrazm3i8q8sinq15da7z0skkin8d2&#45;bootstrap&#45;stage2&#45;gcc&#45;wrapper&#45;14.3.0&#45;&gt;/nix/store/jr2hpcx863iiq8v2dqp4xpvlh8c2x1q6&#45;xgcc&#45;14.3.0 -->
<g id="edge22" class="edge">
<title>/nix/store/bxdlrazm3i8q8sinq15da7z0skkin8d2&#45;bootstrap&#45;stage2&#45;gcc&#45;wrapper&#45;14.3.0&#45;&gt;/nix/store/jr2hpcx863iiq8v2dqp4xpvlh8c2x1q6&#45;xgcc&#45;14.3.0</title>
<path fill="none" stroke="black" d="M189.14,-522.86C243.34,-477.66 382.66,-361.49 444.65,-309.8"/>
<polygon fill="black" stroke="black" points="446.61,-312.72 452.05,-303.63 442.13,-307.34 446.61,-312.72"/>
</g>
<!-- /nix/store/nwjxbdvgrylq1dlq2pnllhqsjnq4kymp&#45;xgcc&#45;14.3.0&#45;lib -->
<g id="node15" class="node">
<title>/nix/store/nwjxbdvgrylq1dlq2pnllhqsjnq4kymp&#45;xgcc&#45;14.3.0&#45;lib</title>
<path fill="#eeeeee" stroke="black" d="M775.35,-428.34C775.35,-428.34 632.4,-428.34 632.4,-428.34 626.4,-428.34 620.4,-422.34 620.4,-416.34 620.4,-416.34 620.4,-404.34 620.4,-404.34 620.4,-398.34 626.4,-392.34 632.4,-392.34 632.4,-392.34 775.35,-392.34 775.35,-392.34 781.35,-392.34 787.35,-398.34 787.35,-404.34 787.35,-404.34 787.35,-416.34 787.35,-416.34 787.35,-422.34 781.35,-428.34 775.35,-428.34"/>
<text text-anchor="middle" x="703.88" y="-406.42" font-family="Times,serif" font-size="14.00">xgcc&#45;14.3.0&#45;lib</text>
</g>
<!-- /nix/store/bxdlrazm3i8q8sinq15da7z0skkin8d2&#45;bootstrap&#45;stage2&#45;gcc&#45;wrapper&#45;14.3.0&#45;&gt;/nix/store/nwjxbdvgrylq1dlq2pnllhqsjnq4kymp&#45;xgcc&#45;14.3.0&#45;lib -->
<g id="edge45" class="edge">
<title>/nix/store/bxdlrazm3i8q8sinq15da7z0skkin8d2&#45;bootstrap&#45;stage2&#45;gcc&#45;wrapper&#45;14.3.0&#45;&gt;/nix/store/nwjxbdvgrylq1dlq2pnllhqsjnq4kymp&#45;xgcc&#45;14.3.0&#45;lib</title>
<path fill="none" stroke="black" d="M236.64,-522.92C275.28,-512.81 324.22,-500.16 367.95,-489.34 450.22,-469 544.15,-446.94 611.56,-431.32"/>
<polygon fill="black" stroke="black" points="612.14,-434.78 621.09,-429.11 610.56,-427.96 612.14,-434.78"/>
</g>
<!-- /nix/store/4fiwnj7fkv012bq6b6hlqas3bk0qzv3i&#45;binutils&#45;2.44&#45;lib -->
<g id="node4" class="node">
<title>/nix/store/4fiwnj7fkv012bq6b6hlqas3bk0qzv3i&#45;binutils&#45;2.44&#45;lib</title>
<path fill="#eeeeee" stroke="black" d="M998.93,-767.34C998.93,-767.34 839.48,-767.34 839.48,-767.34 833.48,-767.34 827.48,-761.34 827.48,-755.34 827.48,-755.34 827.48,-743.34 827.48,-743.34 827.48,-737.34 833.48,-731.34 839.48,-731.34 839.48,-731.34 998.93,-731.34 998.93,-731.34 1004.93,-731.34 1010.93,-737.34 1010.93,-743.34 1010.93,-743.34 1010.93,-755.34 1010.93,-755.34 1010.93,-761.34 1004.93,-767.34 998.93,-767.34"/>
<text text-anchor="middle" x="919.2" y="-745.42" font-family="Times,serif" font-size="14.00">binutils&#45;2.44&#45;lib</text>
</g>
<!-- /nix/store/yy0zgvwzj953frcj73lr7zmyggnv7r6b&#45;binutils&#45;2.44&#45;&gt;/nix/store/4fiwnj7fkv012bq6b6hlqas3bk0qzv3i&#45;binutils&#45;2.44&#45;lib -->
<g id="edge3" class="edge">
<title>/nix/store/yy0zgvwzj953frcj73lr7zmyggnv7r6b&#45;binutils&#45;2.44&#45;&gt;/nix/store/4fiwnj7fkv012bq6b6hlqas3bk0qzv3i&#45;binutils&#45;2.44&#45;lib</title>
<path fill="none" stroke="black" d="M779.49,-719.43C793.04,-722.35 807.36,-725.44 821.45,-728.48"/>
<polygon fill="black" stroke="black" points="820.68,-731.89 831.2,-730.58 822.16,-725.05 820.68,-731.89"/>
</g>
<!-- /nix/store/yy0zgvwzj953frcj73lr7zmyggnv7r6b&#45;binutils&#45;2.44&#45;&gt;/nix/store/vwfprzg8aimy7mfjyn9qcj1swk0f0i82&#45;bootstrap&#45;stage0&#45;glibc&#45;bootstrapFiles -->
<g id="edge11" class="edge">
<title>/nix/store/yy0zgvwzj953frcj73lr7zmyggnv7r6b&#45;binutils&#45;2.44&#45;&gt;/nix/store/vwfprzg8aimy7mfjyn9qcj1swk0f0i82&#45;bootstrap&#45;stage0&#45;glibc&#45;bootstrapFiles</title>
<path fill="none" stroke="black" d="M779.35,-687.73C793.92,-684.83 809.1,-681.9 823.35,-679.34 835.87,-677.09 1264.71,-614.67 1275.75,-608.34 1297.67,-595.78 1292.1,-580.23 1311.75,-564.34 1346.33,-536.39 1391.1,-513.67 1426.46,-498.18"/>
<polygon fill="black" stroke="black" points="1427.44,-501.57 1435.25,-494.4 1424.68,-495.13 1427.44,-501.57"/>
</g>
<!-- /nix/store/yy0zgvwzj953frcj73lr7zmyggnv7r6b&#45;binutils&#45;2.44&#45;&gt;/nix/store/razasrvdg7ckplfmvdxv4ia3wbayr94s&#45;bootstrap&#45;tools -->
<g id="edge12" class="edge">
<title>/nix/store/yy0zgvwzj953frcj73lr7zmyggnv7r6b&#45;binutils&#45;2.44&#45;&gt;/nix/store/razasrvdg7ckplfmvdxv4ia3wbayr94s&#45;bootstrap&#45;tools</title>
<path fill="none" stroke="black" d="M726.25,-721.66C748.72,-739.6 785.93,-765.74 823.35,-776.34 905.32,-799.57 929.91,-779.44 1015.05,-776.34 1304.25,-765.82 1414.33,-840.96 1660.2,-688.34 1711.52,-656.49 1747.98,-593.57 1765.96,-556.84"/>
<polygon fill="black" stroke="black" points="1768.95,-558.68 1770.09,-548.15 1762.63,-555.68 1768.95,-558.68"/>
</g>
<!-- /nix/store/8rvx9zcbkmk08ia3ykn23hwfrg25fx6a&#45;zlib&#45;1.3.1 -->
<g id="node8" class="node">
<title>/nix/store/8rvx9zcbkmk08ia3ykn23hwfrg25fx6a&#45;zlib&#45;1.3.1</title>
<path fill="#eeeeee" stroke="black" d="M1214.25,-691.34C1214.25,-691.34 1112.55,-691.34 1112.55,-691.34 1106.55,-691.34 1100.55,-685.34 1100.55,-679.34 1100.55,-679.34 1100.55,-667.34 1100.55,-667.34 1100.55,-661.34 1106.55,-655.34 1112.55,-655.34 1112.55,-655.34 1214.25,-655.34 1214.25,-655.34 1220.25,-655.34 1226.25,-661.34 1226.25,-667.34 1226.25,-667.34 1226.25,-679.34 1226.25,-679.34 1226.25,-685.34 1220.25,-691.34 1214.25,-691.34"/>
<text text-anchor="middle" x="1163.4" y="-669.42" font-family="Times,serif" font-size="14.00">zlib&#45;1.3.1</text>
</g>
<!-- /nix/store/yy0zgvwzj953frcj73lr7zmyggnv7r6b&#45;binutils&#45;2.44&#45;&gt;/nix/store/8rvx9zcbkmk08ia3ykn23hwfrg25fx6a&#45;zlib&#45;1.3.1 -->
<g id="edge13" class="edge">
<title>/nix/store/yy0zgvwzj953frcj73lr7zmyggnv7r6b&#45;binutils&#45;2.44&#45;&gt;/nix/store/8rvx9zcbkmk08ia3ykn23hwfrg25fx6a&#45;zlib&#45;1.3.1</title>
<path fill="none" stroke="black" d="M779.4,-698.46C864.86,-692.85 1004.06,-683.72 1089.03,-678.15"/>
<polygon fill="black" stroke="black" points="1089.13,-681.65 1098.88,-677.51 1088.68,-674.67 1089.13,-681.65"/>
</g>
<!-- /nix/store/4fiwnj7fkv012bq6b6hlqas3bk0qzv3i&#45;binutils&#45;2.44&#45;lib&#45;&gt;/nix/store/vwfprzg8aimy7mfjyn9qcj1swk0f0i82&#45;bootstrap&#45;stage0&#45;glibc&#45;bootstrapFiles -->
<g id="edge4" class="edge">
<title>/nix/store/4fiwnj7fkv012bq6b6hlqas3bk0qzv3i&#45;binutils&#45;2.44&#45;lib&#45;&gt;/nix/store/vwfprzg8aimy7mfjyn9qcj1swk0f0i82&#45;bootstrap&#45;stage0&#45;glibc&#45;bootstrapFiles</title>
<path fill="none" stroke="black" d="M1011.11,-743.76C1100.88,-737.02 1231.04,-723.58 1275.75,-700.34 1365.67,-653.6 1437.36,-552.32 1468.35,-503.19"/>
<polygon fill="black" stroke="black" points="1471.24,-505.16 1473.54,-494.82 1465.3,-501.47 1471.24,-505.16"/>
</g>
<!-- /nix/store/4fiwnj7fkv012bq6b6hlqas3bk0qzv3i&#45;binutils&#45;2.44&#45;lib&#45;&gt;/nix/store/razasrvdg7ckplfmvdxv4ia3wbayr94s&#45;bootstrap&#45;tools -->
<g id="edge7" class="edge">
<title>/nix/store/4fiwnj7fkv012bq6b6hlqas3bk0qzv3i&#45;binutils&#45;2.44&#45;lib&#45;&gt;/nix/store/razasrvdg7ckplfmvdxv4ia3wbayr94s&#45;bootstrap&#45;tools</title>
<path fill="none" stroke="black" d="M1011.06,-751.57C1083.27,-751.89 1186.61,-749.1 1275.75,-734.34 1451.45,-705.26 1501.88,-702.9 1660.2,-621.34 1694.68,-603.58 1728.97,-575.19 1751.72,-554.44"/>
<polygon fill="black" stroke="black" points="1754.09,-557.02 1759.04,-547.65 1749.32,-551.89 1754.09,-557.02"/>
</g>
<!-- /nix/store/4fiwnj7fkv012bq6b6hlqas3bk0qzv3i&#45;binutils&#45;2.44&#45;lib&#45;&gt;/nix/store/8rvx9zcbkmk08ia3ykn23hwfrg25fx6a&#45;zlib&#45;1.3.1 -->
<g id="edge8" class="edge">
<title>/nix/store/4fiwnj7fkv012bq6b6hlqas3bk0qzv3i&#45;binutils&#45;2.44&#45;lib&#45;&gt;/nix/store/8rvx9zcbkmk08ia3ykn23hwfrg25fx6a&#45;zlib&#45;1.3.1</title>
<path fill="none" stroke="black" d="M974.72,-730.95C1008.84,-719.45 1047.07,-706.58 1051.05,-705.34 1063.3,-701.52 1076.37,-697.62 1089.07,-693.91"/>
<polygon fill="black" stroke="black" points="1090.04,-697.28 1098.67,-691.13 1088.09,-690.55 1090.04,-697.28"/>
</g>
<!-- /nix/store/vwfprzg8aimy7mfjyn9qcj1swk0f0i82&#45;bootstrap&#45;stage0&#45;glibc&#45;bootstrapFiles&#45;&gt;/nix/store/razasrvdg7ckplfmvdxv4ia3wbayr94s&#45;bootstrap&#45;tools -->
<g id="edge5" class="edge">
<title>/nix/store/vwfprzg8aimy7mfjyn9qcj1swk0f0i82&#45;bootstrap&#45;stage0&#45;glibc&#45;bootstrapFiles&#45;&gt;/nix/store/razasrvdg7ckplfmvdxv4ia3wbayr94s&#45;bootstrap&#45;tools</title>
<path fill="none" stroke="black" d="M1588.59,-493.8C1619.78,-499.47 1653.95,-505.68 1684.62,-511.25"/>
<polygon fill="black" stroke="black" points="1683.79,-514.66 1694.25,-513 1685.04,-507.77 1683.79,-514.66"/>
</g>
<!-- /nix/store/p9wzypb84a60ymqnhqza17ws0dvlyprg&#45;busybox -->
<g id="node7" class="node">
<title>/nix/store/p9wzypb84a60ymqnhqza17ws0dvlyprg&#45;busybox</title>
<path fill="#eeeeee" stroke="black" d="M1988.1,-546.34C1988.1,-546.34 1911.15,-546.34 1911.15,-546.34 1905.15,-546.34 1899.15,-540.34 1899.15,-534.34 1899.15,-534.34 1899.15,-522.34 1899.15,-522.34 1899.15,-516.34 1905.15,-510.34 1911.15,-510.34 1911.15,-510.34 1988.1,-510.34 1988.1,-510.34 1994.1,-510.34 2000.1,-516.34 2000.1,-522.34 2000.1,-522.34 2000.1,-534.34 2000.1,-534.34 2000.1,-540.34 1994.1,-546.34 1988.1,-546.34"/>
<text text-anchor="middle" x="1949.63" y="-524.42" font-family="Times,serif" font-size="14.00">busybox</text>
</g>
<!-- /nix/store/razasrvdg7ckplfmvdxv4ia3wbayr94s&#45;bootstrap&#45;tools&#45;&gt;/nix/store/p9wzypb84a60ymqnhqza17ws0dvlyprg&#45;busybox -->
<g id="edge6" class="edge">
<title>/nix/store/razasrvdg7ckplfmvdxv4ia3wbayr94s&#45;bootstrap&#45;tools&#45;&gt;/nix/store/p9wzypb84a60ymqnhqza17ws0dvlyprg&#45;busybox</title>
<path fill="none" stroke="black" d="M1863.17,-528.34C1871.42,-528.34 1879.69,-528.34 1887.66,-528.34"/>
<polygon fill="black" stroke="black" points="1887.57,-531.84 1897.57,-528.34 1887.57,-524.84 1887.57,-531.84"/>
</g>
<!-- /nix/store/8rvx9zcbkmk08ia3ykn23hwfrg25fx6a&#45;zlib&#45;1.3.1&#45;&gt;/nix/store/vwfprzg8aimy7mfjyn9qcj1swk0f0i82&#45;bootstrap&#45;stage0&#45;glibc&#45;bootstrapFiles -->
<g id="edge9" class="edge">
<title>/nix/store/8rvx9zcbkmk08ia3ykn23hwfrg25fx6a&#45;zlib&#45;1.3.1&#45;&gt;/nix/store/vwfprzg8aimy7mfjyn9qcj1swk0f0i82&#45;bootstrap&#45;stage0&#45;glibc&#45;bootstrapFiles</title>
<path fill="none" stroke="black" d="M1226.73,-660.05C1243.17,-655.32 1260.55,-649.17 1275.75,-641.34 1314.17,-621.57 1407.57,-542.58 1455.51,-501.1"/>
<polygon fill="black" stroke="black" points="1457.5,-504 1462.76,-494.8 1452.92,-498.71 1457.5,-504"/>
</g>
<!-- /nix/store/8rvx9zcbkmk08ia3ykn23hwfrg25fx6a&#45;zlib&#45;1.3.1&#45;&gt;/nix/store/razasrvdg7ckplfmvdxv4ia3wbayr94s&#45;bootstrap&#45;tools -->
<g id="edge10" class="edge">
<title>/nix/store/8rvx9zcbkmk08ia3ykn23hwfrg25fx6a&#45;zlib&#45;1.3.1&#45;&gt;/nix/store/razasrvdg7ckplfmvdxv4ia3wbayr94s&#45;bootstrap&#45;tools</title>
<path fill="none" stroke="black" d="M1226.4,-662.62C1320.82,-645.75 1505.96,-610.56 1660.2,-568.34 1679.02,-563.19 1699.22,-556.73 1717.52,-550.51"/>
<polygon fill="black" stroke="black" points="1718.59,-553.84 1726.91,-547.28 1716.32,-547.22 1718.59,-553.84"/>
</g>
<!-- /nix/store/nqwygg76wsgfj1b4r1xmy9jv4pmlnrks&#45;expand&#45;response&#45;params&#45;&gt;/nix/store/vwfprzg8aimy7mfjyn9qcj1swk0f0i82&#45;bootstrap&#45;stage0&#45;glibc&#45;bootstrapFiles -->
<g id="edge17" class="edge">
<title>/nix/store/nqwygg76wsgfj1b4r1xmy9jv4pmlnrks&#45;expand&#45;response&#45;params&#45;&gt;/nix/store/vwfprzg8aimy7mfjyn9qcj1swk0f0i82&#45;bootstrap&#45;stage0&#45;glibc&#45;bootstrapFiles</title>
<path fill="none" stroke="black" d="M1231.13,-562.87C1245.88,-558.59 1261.38,-553.94 1275.75,-549.34 1326.28,-533.16 1382.98,-512.98 1424.6,-497.78"/>
<polygon fill="black" stroke="black" points="1425.77,-501.08 1433.96,-494.35 1423.36,-494.51 1425.77,-501.08"/>
</g>
<!-- /nix/store/nqwygg76wsgfj1b4r1xmy9jv4pmlnrks&#45;expand&#45;response&#45;params&#45;&gt;/nix/store/razasrvdg7ckplfmvdxv4ia3wbayr94s&#45;bootstrap&#45;tools -->
<g id="edge18" class="edge">
<title>/nix/store/nqwygg76wsgfj1b4r1xmy9jv4pmlnrks&#45;expand&#45;response&#45;params&#45;&gt;/nix/store/razasrvdg7ckplfmvdxv4ia3wbayr94s&#45;bootstrap&#45;tools</title>
<path fill="none" stroke="black" d="M1276,-571.71C1392.92,-561.62 1574.57,-545.95 1684.51,-536.47"/>
<polygon fill="black" stroke="black" points="1684.74,-539.96 1694.4,-535.61 1684.14,-532.99 1684.74,-539.96"/>
</g>
<!-- /nix/store/jr2hpcx863iiq8v2dqp4xpvlh8c2x1q6&#45;xgcc&#45;14.3.0&#45;&gt;/nix/store/vwfprzg8aimy7mfjyn9qcj1swk0f0i82&#45;bootstrap&#45;stage0&#45;glibc&#45;bootstrapFiles -->
<g id="edge23" class="edge">
<title>/nix/store/jr2hpcx863iiq8v2dqp4xpvlh8c2x1q6&#45;xgcc&#45;14.3.0&#45;&gt;/nix/store/vwfprzg8aimy7mfjyn9qcj1swk0f0i82&#45;bootstrap&#45;stage0&#45;glibc&#45;bootstrapFiles</title>
<path fill="none" stroke="black" d="M543.49,-289.66C681.43,-301.69 1008.65,-335.21 1275.75,-401.34 1329.42,-414.63 1388.67,-436.27 1430.37,-452.73"/>
<polygon fill="black" stroke="black" points="1428.86,-455.9 1439.44,-456.34 1431.45,-449.39 1428.86,-455.9"/>
</g>
<!-- /nix/store/jr2hpcx863iiq8v2dqp4xpvlh8c2x1q6&#45;xgcc&#45;14.3.0&#45;&gt;/nix/store/razasrvdg7ckplfmvdxv4ia3wbayr94s&#45;bootstrap&#45;tools -->
<g id="edge24" class="edge">
<title>/nix/store/jr2hpcx863iiq8v2dqp4xpvlh8c2x1q6&#45;xgcc&#45;14.3.0&#45;&gt;/nix/store/razasrvdg7ckplfmvdxv4ia3wbayr94s&#45;bootstrap&#45;tools</title>
<path fill="none" stroke="black" d="M484.16,-265.98C500.75,-225.17 546.72,-127.11 620.4,-83.34 735.02,-15.26 784.88,-47.34 918.2,-47.34 918.2,-47.34 918.2,-47.34 1164.4,-47.34 1384.93,-47.34 1488.69,71.29 1660.2,-67.34 1728.7,-122.71 1765.27,-405.54 1775.59,-498.61"/>
<polygon fill="black" stroke="black" points="1772.1,-498.89 1776.66,-508.45 1779.06,-498.14 1772.1,-498.89"/>
</g>
<!-- /nix/store/jr2hpcx863iiq8v2dqp4xpvlh8c2x1q6&#45;xgcc&#45;14.3.0&#45;&gt;/nix/store/8rvx9zcbkmk08ia3ykn23hwfrg25fx6a&#45;zlib&#45;1.3.1 -->
<g id="edge44" class="edge">
<title>/nix/store/jr2hpcx863iiq8v2dqp4xpvlh8c2x1q6&#45;xgcc&#45;14.3.0&#45;&gt;/nix/store/8rvx9zcbkmk08ia3ykn23hwfrg25fx6a&#45;zlib&#45;1.3.1</title>
<path fill="none" stroke="black" d="M490.29,-302.64C513.47,-333.88 564.51,-397.9 620.4,-437.34 772.2,-544.47 980.35,-618.1 1089.24,-652.04"/>
<polygon fill="black" stroke="black" points="1088.06,-655.34 1098.65,-654.95 1090.13,-648.65 1088.06,-655.34"/>
</g>
<!-- /nix/store/zh9157flak3s2yyxza57q8vhxl2v9vxk&#45;gmp&#45;6.3.0 -->
<g id="node11" class="node">
<title>/nix/store/zh9157flak3s2yyxza57q8vhxl2v9vxk&#45;gmp&#45;6.3.0</title>
<path fill="#eeeeee" stroke="black" d="M1210.12,-187.34C1210.12,-187.34 1116.68,-187.34 1116.68,-187.34 1110.68,-187.34 1104.68,-181.34 1104.68,-175.34 1104.68,-175.34 1104.68,-163.34 1104.68,-163.34 1104.68,-157.34 1110.68,-151.34 1116.68,-151.34 1116.68,-151.34 1210.12,-151.34 1210.12,-151.34 1216.12,-151.34 1222.12,-157.34 1222.12,-163.34 1222.12,-163.34 1222.12,-175.34 1222.12,-175.34 1222.12,-181.34 1216.12,-187.34 1210.12,-187.34"/>
<text text-anchor="middle" x="1163.4" y="-165.42" font-family="Times,serif" font-size="14.00">gmp&#45;6.3.0</text>
</g>
<!-- /nix/store/jr2hpcx863iiq8v2dqp4xpvlh8c2x1q6&#45;xgcc&#45;14.3.0&#45;&gt;/nix/store/zh9157flak3s2yyxza57q8vhxl2v9vxk&#45;gmp&#45;6.3.0 -->
<g id="edge25" class="edge">
<title>/nix/store/jr2hpcx863iiq8v2dqp4xpvlh8c2x1q6&#45;xgcc&#45;14.3.0&#45;&gt;/nix/store/zh9157flak3s2yyxza57q8vhxl2v9vxk&#45;gmp&#45;6.3.0</title>
<path fill="none" stroke="black" d="M507.07,-265.89C535.3,-249.26 579.32,-225.33 620.4,-211.34 782.72,-156.06 987.65,-158.09 1092.94,-163.93"/>
<polygon fill="black" stroke="black" points="1092.65,-167.42 1102.84,-164.51 1093.06,-160.43 1092.65,-167.42"/>
</g>
<!-- /nix/store/klajji6jiq93fa1a8v8fwrbpnx0lf7z6&#45;isl&#45;0.20 -->
<g id="node12" class="node">
<title>/nix/store/klajji6jiq93fa1a8v8fwrbpnx0lf7z6&#45;isl&#45;0.20</title>
<path fill="#eeeeee" stroke="black" d="M961.8,-111.34C961.8,-111.34 876.6,-111.34 876.6,-111.34 870.6,-111.34 864.6,-105.34 864.6,-99.34 864.6,-99.34 864.6,-87.34 864.6,-87.34 864.6,-81.34 870.6,-75.34 876.6,-75.34 876.6,-75.34 961.8,-75.34 961.8,-75.34 967.8,-75.34 973.8,-81.34 973.8,-87.34 973.8,-87.34 973.8,-99.34 973.8,-99.34 973.8,-105.34 967.8,-111.34 961.8,-111.34"/>
<text text-anchor="middle" x="919.2" y="-89.42" font-family="Times,serif" font-size="14.00">isl&#45;0.20</text>
</g>
<!-- /nix/store/jr2hpcx863iiq8v2dqp4xpvlh8c2x1q6&#45;xgcc&#45;14.3.0&#45;&gt;/nix/store/klajji6jiq93fa1a8v8fwrbpnx0lf7z6&#45;isl&#45;0.20 -->
<g id="edge28" class="edge">
<title>/nix/store/jr2hpcx863iiq8v2dqp4xpvlh8c2x1q6&#45;xgcc&#45;14.3.0&#45;&gt;/nix/store/klajji6jiq93fa1a8v8fwrbpnx0lf7z6&#45;isl&#45;0.20</title>
<path fill="none" stroke="black" d="M487.48,-265.85C507.82,-231.39 556.71,-157.88 620.4,-125.34 693.53,-87.98 789.76,-84.54 852.76,-87.38"/>
<polygon fill="black" stroke="black" points="852.44,-90.87 862.61,-87.9 852.81,-83.88 852.44,-90.87"/>
</g>
<!-- /nix/store/z6cvdrlc69ynxvafwygchx412klwkchz&#45;libmpc&#45;1.3.1 -->
<g id="node13" class="node">
<title>/nix/store/z6cvdrlc69ynxvafwygchx412klwkchz&#45;libmpc&#45;1.3.1</title>
<path fill="#eeeeee" stroke="black" d="M762.98,-256.34C762.98,-256.34 644.77,-256.34 644.77,-256.34 638.77,-256.34 632.77,-250.34 632.77,-244.34 632.77,-244.34 632.77,-232.34 632.77,-232.34 632.77,-226.34 638.77,-220.34 644.77,-220.34 644.77,-220.34 762.98,-220.34 762.98,-220.34 768.98,-220.34 774.98,-226.34 774.98,-232.34 774.98,-232.34 774.98,-244.34 774.98,-244.34 774.98,-250.34 768.98,-256.34 762.98,-256.34"/>
<text text-anchor="middle" x="703.88" y="-234.42" font-family="Times,serif" font-size="14.00">libmpc&#45;1.3.1</text>
</g>
<!-- /nix/store/jr2hpcx863iiq8v2dqp4xpvlh8c2x1q6&#45;xgcc&#45;14.3.0&#45;&gt;/nix/store/z6cvdrlc69ynxvafwygchx412klwkchz&#45;libmpc&#45;1.3.1 -->
<g id="edge32" class="edge">
<title>/nix/store/jr2hpcx863iiq8v2dqp4xpvlh8c2x1q6&#45;xgcc&#45;14.3.0&#45;&gt;/nix/store/z6cvdrlc69ynxvafwygchx412klwkchz&#45;libmpc&#45;1.3.1</title>
<path fill="none" stroke="black" d="M543.37,-270.85C567.73,-265.89 595.61,-260.2 621.18,-254.99"/>
<polygon fill="black" stroke="black" points="621.77,-258.44 630.87,-253.02 620.38,-251.58 621.77,-258.44"/>
</g>
<!-- /nix/store/pnv76017g6hrclsrczq488xy1jif07b7&#45;mpfr&#45;4.2.2 -->
<g id="node14" class="node">
<title>/nix/store/pnv76017g6hrclsrczq488xy1jif07b7&#45;mpfr&#45;4.2.2</title>
<path fill="#eeeeee" stroke="black" d="M970.05,-279.34C970.05,-279.34 868.35,-279.34 868.35,-279.34 862.35,-279.34 856.35,-273.34 856.35,-267.34 856.35,-267.34 856.35,-255.34 856.35,-255.34 856.35,-249.34 862.35,-243.34 868.35,-243.34 868.35,-243.34 970.05,-243.34 970.05,-243.34 976.05,-243.34 982.05,-249.34 982.05,-255.34 982.05,-255.34 982.05,-267.34 982.05,-267.34 982.05,-273.34 976.05,-279.34 970.05,-279.34"/>
<text text-anchor="middle" x="919.2" y="-257.42" font-family="Times,serif" font-size="14.00">mpfr&#45;4.2.2</text>
</g>
<!-- /nix/store/jr2hpcx863iiq8v2dqp4xpvlh8c2x1q6&#45;xgcc&#45;14.3.0&#45;&gt;/nix/store/pnv76017g6hrclsrczq488xy1jif07b7&#45;mpfr&#45;4.2.2 -->
<g id="edge40" class="edge">
<title>/nix/store/jr2hpcx863iiq8v2dqp4xpvlh8c2x1q6&#45;xgcc&#45;14.3.0&#45;&gt;/nix/store/pnv76017g6hrclsrczq488xy1jif07b7&#45;mpfr&#45;4.2.2</title>
<path fill="none" stroke="black" d="M543.2,-280.9C624.07,-276.68 760.64,-269.56 844.75,-265.17"/>
<polygon fill="black" stroke="black" points="844.69,-268.68 854.49,-264.66 844.33,-261.69 844.69,-268.68"/>
</g>
<!-- /nix/store/jr2hpcx863iiq8v2dqp4xpvlh8c2x1q6&#45;xgcc&#45;14.3.0&#45;&gt;/nix/store/nwjxbdvgrylq1dlq2pnllhqsjnq4kymp&#45;xgcc&#45;14.3.0&#45;lib -->
<g id="edge41" class="edge">
<title>/nix/store/jr2hpcx863iiq8v2dqp4xpvlh8c2x1q6&#45;xgcc&#45;14.3.0&#45;&gt;/nix/store/nwjxbdvgrylq1dlq2pnllhqsjnq4kymp&#45;xgcc&#45;14.3.0&#45;lib</title>
<path fill="none" stroke="black" d="M509.99,-302.66C549.61,-324.78 616.33,-362.03 659.99,-386.4"/>
<polygon fill="black" stroke="black" points="658.26,-389.44 668.7,-391.26 661.67,-383.33 658.26,-389.44"/>
</g>
<!-- /nix/store/zh9157flak3s2yyxza57q8vhxl2v9vxk&#45;gmp&#45;6.3.0&#45;&gt;/nix/store/vwfprzg8aimy7mfjyn9qcj1swk0f0i82&#45;bootstrap&#45;stage0&#45;glibc&#45;bootstrapFiles -->
<g id="edge26" class="edge">
<title>/nix/store/zh9157flak3s2yyxza57q8vhxl2v9vxk&#45;gmp&#45;6.3.0&#45;&gt;/nix/store/vwfprzg8aimy7mfjyn9qcj1swk0f0i82&#45;bootstrap&#45;stage0&#45;glibc&#45;bootstrapFiles</title>
<path fill="none" stroke="black" d="M1183.49,-187.57C1237.95,-239.55 1394.17,-388.67 1457.66,-449.27"/>
<polygon fill="black" stroke="black" points="1455.24,-451.79 1464.89,-456.17 1460.07,-446.73 1455.24,-451.79"/>
</g>
<!-- /nix/store/zh9157flak3s2yyxza57q8vhxl2v9vxk&#45;gmp&#45;6.3.0&#45;&gt;/nix/store/razasrvdg7ckplfmvdxv4ia3wbayr94s&#45;bootstrap&#45;tools -->
<g id="edge27" class="edge">
<title>/nix/store/zh9157flak3s2yyxza57q8vhxl2v9vxk&#45;gmp&#45;6.3.0&#45;&gt;/nix/store/razasrvdg7ckplfmvdxv4ia3wbayr94s&#45;bootstrap&#45;tools</title>
<path fill="none" stroke="black" d="M1222.51,-154.49C1322.81,-132.52 1530.16,-103.74 1660.2,-201.34 1756.81,-273.85 1774.78,-432.72 1778.02,-498.7"/>
<polygon fill="black" stroke="black" points="1774.51,-498.53 1778.4,-508.38 1781.5,-498.25 1774.51,-498.53"/>
</g>
<!-- /nix/store/klajji6jiq93fa1a8v8fwrbpnx0lf7z6&#45;isl&#45;0.20&#45;&gt;/nix/store/vwfprzg8aimy7mfjyn9qcj1swk0f0i82&#45;bootstrap&#45;stage0&#45;glibc&#45;bootstrapFiles -->
<g id="edge29" class="edge">
<title>/nix/store/klajji6jiq93fa1a8v8fwrbpnx0lf7z6&#45;isl&#45;0.20&#45;&gt;/nix/store/vwfprzg8aimy7mfjyn9qcj1swk0f0i82&#45;bootstrap&#45;stage0&#45;glibc&#45;bootstrapFiles</title>
<path fill="none" stroke="black" d="M974.14,-95.26C1060.99,-99.25 1227,-110.86 1275.75,-142.34 1391,-216.77 1454.23,-379.51 1476.1,-446.08"/>
<polygon fill="black" stroke="black" points="1472.74,-447.09 1479.13,-455.55 1479.41,-444.96 1472.74,-447.09"/>
</g>
<!-- /nix/store/klajji6jiq93fa1a8v8fwrbpnx0lf7z6&#45;isl&#45;0.20&#45;&gt;/nix/store/razasrvdg7ckplfmvdxv4ia3wbayr94s&#45;bootstrap&#45;tools -->
<g id="edge30" class="edge">
<title>/nix/store/klajji6jiq93fa1a8v8fwrbpnx0lf7z6&#45;isl&#45;0.20&#45;&gt;/nix/store/razasrvdg7ckplfmvdxv4ia3wbayr94s&#45;bootstrap&#45;tools</title>
<path fill="none" stroke="black" d="M974.2,-88.01C1126.53,-74.16 1555.36,-43.73 1660.2,-128.34 1719.42,-176.14 1761.26,-415.04 1774.34,-499.06"/>
<polygon fill="black" stroke="black" points="1770.85,-499.44 1775.83,-508.8 1777.77,-498.38 1770.85,-499.44"/>
</g>
<!-- /nix/store/klajji6jiq93fa1a8v8fwrbpnx0lf7z6&#45;isl&#45;0.20&#45;&gt;/nix/store/zh9157flak3s2yyxza57q8vhxl2v9vxk&#45;gmp&#45;6.3.0 -->
<g id="edge31" class="edge">
<title>/nix/store/klajji6jiq93fa1a8v8fwrbpnx0lf7z6&#45;isl&#45;0.20&#45;&gt;/nix/store/zh9157flak3s2yyxza57q8vhxl2v9vxk&#45;gmp&#45;6.3.0</title>
<path fill="none" stroke="black" d="M973.99,-111.49C1008.29,-123.05 1047.05,-136.09 1051.05,-137.34 1064.82,-141.63 1079.62,-146.03 1093.78,-150.14"/>
<polygon fill="black" stroke="black" points="1092.43,-153.39 1103.01,-152.8 1094.37,-146.67 1092.43,-153.39"/>
</g>
<!-- /nix/store/z6cvdrlc69ynxvafwygchx412klwkchz&#45;libmpc&#45;1.3.1&#45;&gt;/nix/store/vwfprzg8aimy7mfjyn9qcj1swk0f0i82&#45;bootstrap&#45;stage0&#45;glibc&#45;bootstrapFiles -->
<g id="edge33" class="edge">
<title>/nix/store/z6cvdrlc69ynxvafwygchx412klwkchz&#45;libmpc&#45;1.3.1&#45;&gt;/nix/store/vwfprzg8aimy7mfjyn9qcj1swk0f0i82&#45;bootstrap&#45;stage0&#45;glibc&#45;bootstrapFiles</title>
<path fill="none" stroke="black" d="M741.61,-256.74C764.58,-267.5 795.06,-280.48 823.35,-288.34 1019.07,-342.72 1083.93,-286.5 1275.75,-353.34 1342.51,-376.61 1411.83,-421.94 1451.55,-450.31"/>
<polygon fill="black" stroke="black" points="1449.37,-453.06 1459.52,-456.08 1453.47,-447.38 1449.37,-453.06"/>
</g>
<!-- /nix/store/z6cvdrlc69ynxvafwygchx412klwkchz&#45;libmpc&#45;1.3.1&#45;&gt;/nix/store/razasrvdg7ckplfmvdxv4ia3wbayr94s&#45;bootstrap&#45;tools -->
<g id="edge34" class="edge">
<title>/nix/store/z6cvdrlc69ynxvafwygchx412klwkchz&#45;libmpc&#45;1.3.1&#45;&gt;/nix/store/razasrvdg7ckplfmvdxv4ia3wbayr94s&#45;bootstrap&#45;tools</title>
<path fill="none" stroke="black" d="M775.21,-231.84C971.03,-215.18 1517.41,-178.85 1660.2,-277.34 1736.35,-329.87 1764.92,-444.77 1774.44,-498.96"/>
<polygon fill="black" stroke="black" points="1770.96,-499.36 1776.04,-508.66 1777.87,-498.23 1770.96,-499.36"/>
</g>
<!-- /nix/store/z6cvdrlc69ynxvafwygchx412klwkchz&#45;libmpc&#45;1.3.1&#45;&gt;/nix/store/zh9157flak3s2yyxza57q8vhxl2v9vxk&#45;gmp&#45;6.3.0 -->
<g id="edge35" class="edge">
<title>/nix/store/z6cvdrlc69ynxvafwygchx412klwkchz&#45;libmpc&#45;1.3.1&#45;&gt;/nix/store/zh9157flak3s2yyxza57q8vhxl2v9vxk&#45;gmp&#45;6.3.0</title>
<path fill="none" stroke="black" d="M755.88,-219.85C776.57,-213.03 800.85,-205.87 823.35,-201.34 915.6,-182.8 1024.18,-174.94 1093.13,-171.65"/>
<polygon fill="black" stroke="black" points="1092.93,-175.17 1102.76,-171.21 1092.61,-168.17 1092.93,-175.17"/>
</g>
<!-- /nix/store/z6cvdrlc69ynxvafwygchx412klwkchz&#45;libmpc&#45;1.3.1&#45;&gt;/nix/store/pnv76017g6hrclsrczq488xy1jif07b7&#45;mpfr&#45;4.2.2 -->
<g id="edge36" class="edge">
<title>/nix/store/z6cvdrlc69ynxvafwygchx412klwkchz&#45;libmpc&#45;1.3.1&#45;&gt;/nix/store/pnv76017g6hrclsrczq488xy1jif07b7&#45;mpfr&#45;4.2.2</title>
<path fill="none" stroke="black" d="M775.32,-245.94C797.64,-248.34 822.36,-251.01 844.88,-253.44"/>
<polygon fill="black" stroke="black" points="844.26,-256.89 854.58,-254.48 845.01,-249.93 844.26,-256.89"/>
</g>
<!-- /nix/store/pnv76017g6hrclsrczq488xy1jif07b7&#45;mpfr&#45;4.2.2&#45;&gt;/nix/store/vwfprzg8aimy7mfjyn9qcj1swk0f0i82&#45;bootstrap&#45;stage0&#45;glibc&#45;bootstrapFiles -->
<g id="edge37" class="edge">
<title>/nix/store/pnv76017g6hrclsrczq488xy1jif07b7&#45;mpfr&#45;4.2.2&#45;&gt;/nix/store/vwfprzg8aimy7mfjyn9qcj1swk0f0i82&#45;bootstrap&#45;stage0&#45;glibc&#45;bootstrapFiles</title>
<path fill="none" stroke="black" d="M982.29,-267.02C1069.69,-275.65 1224.11,-293.4 1275.75,-315.34 1351.07,-347.35 1423.33,-412.8 1460,-449.29"/>
<polygon fill="black" stroke="black" points="1457.1,-451.34 1466.63,-455.97 1462.07,-446.41 1457.1,-451.34"/>
</g>
<!-- /nix/store/pnv76017g6hrclsrczq488xy1jif07b7&#45;mpfr&#45;4.2.2&#45;&gt;/nix/store/razasrvdg7ckplfmvdxv4ia3wbayr94s&#45;bootstrap&#45;tools -->
<g id="edge38" class="edge">
<title>/nix/store/pnv76017g6hrclsrczq488xy1jif07b7&#45;mpfr&#45;4.2.2&#45;&gt;/nix/store/razasrvdg7ckplfmvdxv4ia3wbayr94s&#45;bootstrap&#45;tools</title>
<path fill="none" stroke="black" d="M982.51,-255.37C1054.26,-250.21 1175.18,-246.85 1275.75,-270.34 1467.05,-315.02 1666.7,-447.59 1744.66,-503.27"/>
<polygon fill="black" stroke="black" points="1742.6,-506.1 1752.76,-509.1 1746.69,-500.42 1742.6,-506.1"/>
</g>
<!-- /nix/store/pnv76017g6hrclsrczq488xy1jif07b7&#45;mpfr&#45;4.2.2&#45;&gt;/nix/store/zh9157flak3s2yyxza57q8vhxl2v9vxk&#45;gmp&#45;6.3.0 -->
<g id="edge39" class="edge">
<title>/nix/store/pnv76017g6hrclsrczq488xy1jif07b7&#45;mpfr&#45;4.2.2&#45;&gt;/nix/store/zh9157flak3s2yyxza57q8vhxl2v9vxk&#45;gmp&#45;6.3.0</title>
<path fill="none" stroke="black" d="M968.63,-242.95C1007.41,-228.22 1061.96,-207.49 1103.31,-191.79"/>
<polygon fill="black" stroke="black" points="1104.53,-195.07 1112.64,-188.24 1102.05,-188.52 1104.53,-195.07"/>
</g>
<!-- /nix/store/nwjxbdvgrylq1dlq2pnllhqsjnq4kymp&#45;xgcc&#45;14.3.0&#45;lib&#45;&gt;/nix/store/vwfprzg8aimy7mfjyn9qcj1swk0f0i82&#45;bootstrap&#45;stage0&#45;glibc&#45;bootstrapFiles -->
<g id="edge42" class="edge">
<title>/nix/store/nwjxbdvgrylq1dlq2pnllhqsjnq4kymp&#45;xgcc&#45;14.3.0&#45;lib&#45;&gt;/nix/store/vwfprzg8aimy7mfjyn9qcj1swk0f0i82&#45;bootstrap&#45;stage0&#45;glibc&#45;bootstrapFiles</title>
<path fill="none" stroke="black" d="M787.7,-404.04C799.65,-403.33 811.81,-402.73 823.35,-402.34 908.5,-399.47 930.1,-395.78 1015.05,-402.34 1142.53,-412.18 1287.75,-436.83 1382.59,-454.77"/>
<polygon fill="black" stroke="black" points="1381.65,-458.16 1392.13,-456.59 1382.96,-451.28 1381.65,-458.16"/>
</g>
<!-- /nix/store/0ja5daq2yay3svg6f48spyfby7pgy5bm&#45;xgcc&#45;14.3.0&#45;libgcc -->
<g id="node16" class="node">
<title>/nix/store/0ja5daq2yay3svg6f48spyfby7pgy5bm&#45;xgcc&#45;14.3.0&#45;libgcc</title>
<path fill="#eeeeee" stroke="black" d="M1003.05,-447.34C1003.05,-447.34 835.35,-447.34 835.35,-447.34 829.35,-447.34 823.35,-441.34 823.35,-435.34 823.35,-435.34 823.35,-423.34 823.35,-423.34 823.35,-417.34 829.35,-411.34 835.35,-411.34 835.35,-411.34 1003.05,-411.34 1003.05,-411.34 1009.05,-411.34 1015.05,-417.34 1015.05,-423.34 1015.05,-423.34 1015.05,-435.34 1015.05,-435.34 1015.05,-441.34 1009.05,-447.34 1003.05,-447.34"/>
<text text-anchor="middle" x="919.2" y="-425.42" font-family="Times,serif" font-size="14.00">xgcc&#45;14.3.0&#45;libgcc</text>
</g>
<!-- /nix/store/nwjxbdvgrylq1dlq2pnllhqsjnq4kymp&#45;xgcc&#45;14.3.0&#45;lib&#45;&gt;/nix/store/0ja5daq2yay3svg6f48spyfby7pgy5bm&#45;xgcc&#45;14.3.0&#45;libgcc -->
<g id="edge43" class="edge">
<title>/nix/store/nwjxbdvgrylq1dlq2pnllhqsjnq4kymp&#45;xgcc&#45;14.3.0&#45;lib&#45;&gt;/nix/store/0ja5daq2yay3svg6f48spyfby7pgy5bm&#45;xgcc&#45;14.3.0&#45;libgcc</title>
<path fill="none" stroke="black" d="M787.66,-417.71C795.54,-418.42 803.6,-419.14 811.67,-419.85"/>
<polygon fill="black" stroke="black" points="811.27,-423.33 821.54,-420.73 811.89,-416.36 811.27,-423.33"/>
</g>
</g>
</svg>
